<?xml version="1.0" encoding="utf-8"?>
<!-- Generator: Adobe Illustrator 24.3.0, SVG Export Plug-In . SVG Version: 6.00 Build 0)  -->
<svg version="1.1" id="Layer_1" xmlns="http://www.w3.org/2000/svg" xmlns:xlink="http://www.w3.org/1999/xlink" x="0px" y="0px"
	 viewBox="0 0 1930 1360" style="enable-background:new 0 0 1930 1360;" xml:space="preserve">
<style type="text/css">
	.st0{display:none;}
	.st1{display:inline;}
	.st2{fill:url(#SVGID_1_);}
	.st3{fill:url(#SVGID_2_);}
	.st4{fill:url(#SVGID_3_);}
	.st5{fill:url(#SVGID_4_);}
	.st6{display:inline;fill:#EFEAE4;}
	.st7{fill:#2B2B2B;}
	.st8{fill:#1C1C1C;}
	.st9{fill:url(#SVGID_5_);}
	.st10{fill:url(#SVGID_6_);}
	.st11{fill:url(#SVGID_7_);}
	.st12{fill:url(#SVGID_8_);}
	.st13{fill:#EFEAE4;}
	.st14{fill:#303030;}
	.st15{fill:#282828;}
</style>
<g>
	<path class="st7" d="M657.6,561.9h96.1v22.3h-35.2v98.9h-26v-98.9h-35V561.9z"/>
	<path class="st7" d="M819.9,594.1v22.2h-9.7c-14.5,0-20.1,9.7-20.1,23.2v43.7h-24.4v-89h22.2l2.3,13.3c4.8-8,11.8-13.3,25.6-13.3
		H819.9z"/>
	<path class="st7" d="M828.9,570.9c0-8,6.2-13.9,14.2-13.9s14.2,5.9,14.2,13.9c0,7.8-6.2,13.7-14.2,13.7S828.9,578.7,828.9,570.9z
		 M830.8,594.1h24.6v89h-24.6V594.1z"/>
	<path class="st7" d="M964.7,638.8c0,27.7-17.3,45.4-41.2,45.4c-12.3,0-21.1-5-26.8-12.3v45.9h-24.4V594.1h21.3l2.4,12.3
		c5.7-7.6,14.7-13.3,27.4-13.3C947.4,592.9,964.7,610.8,964.7,638.8z M939.9,638.5c0-15.1-8.7-25.5-22-25.5s-21.7,10.4-21.7,25.5
		c0,15.2,8.3,25.8,21.7,25.8S939.9,653.7,939.9,638.5z"/>
	<path class="st8" d="M975.8,557.2h100.3V575l-64.6,85.1h66.2v23H974.2v-17.8l64.6-85.1h-63V557.2z"/>
	<path class="st8" d="M1182.1,661.7v21.4h-13c-13.1,0-17.3-6.3-17.1-15.1c-6.5,10.3-15.8,16.2-30.2,16.2c-20,0-34.4-9.5-34.4-27.2
		c0-19.6,14.8-30.8,42.5-30.8h18.4v-4.5c0-8.3-5.9-13.7-16.6-13.7c-9.9,0-16.6,4.5-17.6,11.3h-24.5c1.8-18,18.4-29.9,42.8-29.9
		c25.9,0,40.9,11.5,40.9,33.7V656c0,4.9,2,5.8,5.9,5.8H1182.1z M1148.3,643.2h-18.5c-10.6,0-16.7,4.3-16.7,12.1
		c0,6.5,5.2,10.6,13.7,10.6c13.3,0,21.4-8.3,21.6-20.9V643.2z"/>
	<path class="st8" d="M1194,557.2h84.6v23.2H1221v28.3h46.8v22.1H1221v29.2h59.6v23.2H1194V557.2z"/>
	<path class="st8" d="M1365,590.6h22.3v89.8c0,22.9-14,39.8-49.5,39.8c-25.7,0-43.4-11.7-44.6-33.1h25.6c2.3,8.8,9.4,13.9,21.1,13.9
		c14.2,0,22.7-7,22.7-21.4v-9.7c-6.1,7.7-15.3,12.8-28.3,12.8c-24.8,0.2-43-18-43-46.6c0-28.3,18.2-46.6,42.8-46.6
		c13.3,0,22.7,5.9,28.8,14L1365,590.6z M1362.3,636.4c0-15.5-8.6-26.5-22.5-26.5s-22.7,10.8-22.7,26.3c0,15.5,8.8,26.1,22.7,26.1
		S1362.3,651.7,1362.3,636.4z"/>
	<path class="st8" d="M1396,590.6h27l22.5,65.9l22-65.9h27.2l-41,105.7c-5.8,15.3-10.4,22.9-24.8,22.9h-24.7v-21.4h14
		c6.5,0,8.6-1.6,11.2-7.9l2.3-6.1L1396,590.6z"/>
	<path class="st8" d="M1599.4,637.1c0,28.8-18,47.2-42.8,47.2c-12.8,0-22-5.2-27.9-12.8v47.7h-25.4V590.6h22.1l2.5,12.8
		c5.9-7.9,15.3-13.9,28.4-13.9C1581.4,589.4,1599.4,607.9,1599.4,637.1z M1573.6,636.7c0-15.7-9-26.5-22.9-26.5
		s-22.5,10.8-22.5,26.5c0,15.8,8.6,26.8,22.5,26.8S1573.6,652.6,1573.6,636.7z"/>
	<path class="st8" d="M1620.1,612.1h-15.3v-21.4h15.3v-25.9h25.4v25.9h21.2v21.4h-21.2v40.5c0,6.5,2.5,9.2,9.2,9.2h12.6v21.4h-20.7
		c-17.6,0-26.5-8.8-26.5-26.5V612.1z"/>
</g>
<g>
	<g id="XMLID_1_">
		<g>
			<linearGradient id="SVGID_1_" gradientUnits="userSpaceOnUse" x1="262.0019" y1="557.316" x2="610.892" y2="557.316">
				<stop  offset="0" style="stop-color:#0B7CC1"/>
				<stop  offset="1" style="stop-color:#57C5B6"/>
			</linearGradient>
			<path class="st2" d="M263.3,577.9c-1.6,0.3-1.5,1.9-0.6,2.8c1.6,1.8,5.3,2.4,7.5,3.1c10.5,1.8,30.3,8.7,114.9-24.9
				c21.9-8.7,45.4-13.9,69.1-13.6c3.2,0,6.5,0.2,9.7,0.4c10.5,0.8,21,2.8,31,6.2c10.3,3.4,19.4,8.8,29,13.8
				c9.5,5,19.5,9.2,29.5,12.9c11.4,4.3,23.4,8.2,35.6,9c7.4,0.4,18-1.1,22-8.3c-0.9,0.2-1.9,0.2-2.9,0.4c-3,0.4-6,0.4-9,0.2
				c-22.7-1.3-41.8-15.3-61.2-25.7c-20.2-10.8-41.3-20.7-63.9-25c-1.8-0.4-3.7-0.7-5.5-1c-1.8-0.3-3.7-0.5-5.5-0.7
				c-3.8-0.4-7.6-0.4-11.4-0.3c-11.2,0.3-22.4,2-33.4,4.4c-18.4,4-36.2,10.1-53.5,17.4c-10.9,4.6-21.2,10.4-32.1,14.9
				c-5.8,2.4-11.7,4.6-17.7,6.6c-8.4,2.8-16.9,5.2-25.6,6.7c-4.4,0.7-8.8,1.2-13.2,1.4c-3.1,0.1-6.2,0-9.3-0.3
				C265.6,578,264.4,577.7,263.3,577.9z"/>
			<linearGradient id="SVGID_2_" gradientUnits="userSpaceOnUse" x1="262.0012" y1="631.3899" x2="608.9838" y2="631.3899">
				<stop  offset="0" style="stop-color:#0B7CC1"/>
				<stop  offset="1" style="stop-color:#57C5B6"/>
			</linearGradient>
			<path class="st3" d="M267.2,626.3c-4.6,0.3-7,4.7-3.6,8.5c3.6,4,10.5,2.1,15.1,2.1c4.5,0,8.9-0.2,13.4-0.2
				c12.5-0.2,25.1,0.4,37.2,3.7c9.9,2.7,19,7.8,27.8,13.1c24.5,14.6,50.7,30.9,79.7,34c30.4,3.3,61.8-5.8,89.3-18.4
				c9.1-4.2,17.7-9.5,26.6-14.2c0.5-0.2,0.9-0.5,1.3-0.7l0,0c0.1-0.1,0.2-0.1,0.3-0.2c10.4-5.3,19.1-8,33.1-8
				c6,0.8,19.5,4.8,21.5-6.4c0,0,1.6-8.4-9.5-9.6c-8.2-0.9-16.8-4.2-24.2-7.4c-8.6-3.6-16.9-8-25.1-12.5
				c-17.8-9.8-34.2-21.5-53.5-28.3c-16.6-5.8-34.3-8.1-51.9-7.1c-29.3,1.8-55.5,12.9-81.3,26c-24.5,12.5-50.5,23.1-78.2,25.3
				C279.4,626.7,273.2,626,267.2,626.3z M351.8,632.9c-1-0.5-5.5-3.5-6.7-2.8c31.6-16.1,56.4-26.3,75.8-32.3
				c-5.4,7.2-7.7,16.4-7.7,26.3c0,22.1,20.9,39.1,43,39.1s40.1-18,40.1-40.1c0-11.5-4.9-21.9-12.7-29.3c2.1,1.2,5.3,6.3,6.9,6.7
				c6.1,1.4,11.8,4,17.5,6.6c19.4,8.6,38.4,18.1,57.3,27.7c-0.1,0-0.3,0.1-0.3,0.1c-1.1,0.4-2.3,0.8-3.4,1.3
				c-35.3,13.5-68.3,36.4-107.3,36.3c0,0-35.8-0.1-71.8-20.8C372.4,645.9,362.4,638.2,351.8,632.9z"/>
			<linearGradient id="SVGID_3_" gradientUnits="userSpaceOnUse" x1="264.366" y1="720.1629" x2="555.9722" y2="720.1629">
				<stop  offset="0" style="stop-color:#0B7CC1"/>
				<stop  offset="1" style="stop-color:#57C5B6"/>
			</linearGradient>
			<path class="st4" d="M293.5,670.5c-16.6,5.9-29.6,19.7-29.1,37.7c0.3,8.8,3.5,14,10.1,19.8c2.2,1.9,4.7,3.7,7.3,4.9c0,0,0,0,0,0
				c1.5,0.6,3-0.8,2.6-2.3c-2.5-10.3,1.6-13,4-15.9c6.3-5.7,17.3-3.9,22.8,2.4c5.6,6.5,6.8,16.2,5.7,24.6
				c-2.2,15.8-17,29.8-31.8,34.3c-3.4,1-6.9,1.6-10.5,1.8c-0.9,0-5.4-0.8-6.1-1.4c14.5,13.3,40.9,1,51.6-11.4
				c7.1-8.3,11.2-19.3,11.2-30.3c0.1-12.5-8-24.7-19-30.5c-5.6-3-12.3-4.4-18.6-3.1c-5.4,1.1-9.4,4.7-13.8,7.7
				c-1.1,0.8-2.6-0.2-2.4-1.5c0.2-1.2,0.3-2.3,0.4-2.8c4.6-19.2,27.7-25,45-22.3c10.4,1.7,20.5,6.1,29.6,11.2
				c11.7,6.6,23,14.4,33.2,23.2c14.7,13.3,30.1,25.5,46,37.4c13.4,10,26.1,20.7,41.8,26.8c3.8,1.5,9.8,3.7,16.2,4.6
				c17.4,2.4,37.2-2.1,49.5-14.8c14.2-14.6,16.9-37.8,16.7-57.5c-0.1-11.8-1.8-23.6-4.8-35c-2-7.8-3.2-11.6-1.7-19.7
				c0.4-1.9,2.8-3.3,4.5-4.3l0,0c-6.8,3.7-22.7,12.5-22.3,12.9c0.9,3.9,1.8,7.9,2.6,11.9c2.2,11,4.3,22.2,4.9,33.5
				c0.5,8.3,0.2,16.7-1.2,24.9c-2.1,12.2-6.5,24.4-18.1,30.6c-9.6,5.2-20,3.9-30.1,0.8c-5.9-1.8-11.7-4.3-17.2-7.2
				c-27.1-14.3-49.5-37-72.8-56.2c-12.2-10-25.6-18.6-39.5-26c-10.6-5.6-20.6-9.2-32.6-11.2C316.5,666.3,304.4,666.6,293.5,670.5z"
				/>
			<linearGradient id="SVGID_4_" gradientUnits="userSpaceOnUse" x1="326.1982" y1="761.5678" x2="499.8017" y2="761.5678">
				<stop  offset="0" style="stop-color:#0B7CC1"/>
				<stop  offset="1" style="stop-color:#57C5B6"/>
			</linearGradient>
			<path class="st5" d="M326.5,773.5c-0.6,0.9-0.1,1.9,0.8,2.3c1.6,0.6,3.8,0,5.4-0.3c5.7-1.6,9.3-4.3,22.3-14.6
				c4.7-3.7,10.6-5,16.5-4.5c6.1,0.6,12,2.9,17.4,5.7c5.4,2.8,10.8,5.8,15.8,9.3c4,2.8,9.9,7.2,14,9.9c8.6,5.7,15.8,10.1,25.5,13.9
				c3.5,1.4,16.3,6.6,27.4,6.6c9.1,0,21.3-0.3,28.2-7.1c-10.1,0.6-19.2,1.2-29.2-1.1c-9.7-2.2-19.1-5.9-27.9-10.4
				c-11.5-5.9-22.2-13.3-32-21.6c-8.2-6.4-16.1-13.4-24.4-19.8c-9.4-7.3-19.8-15.8-31.2-19.6c-2.6-0.9-8.1-2.3-8.9,1.6
				c-0.3,1.4,0.1,2.9,0.4,4.3c1.4,6.5,0.4,14.9-1.4,21.3c-1.3,4.7-3.5,9.1-6.4,13c-3,4-7.4,6.9-11.2,10
				C327.1,772.8,326.7,773.1,326.5,773.5z"/>
		</g>
	</g>
	<circle class="st13" cx="437.6" cy="613.9" r="12.5"/>
</g>
<g>
	<g>
		<path class="st14" d="M666.8,773.4l-9.5-28.2h3.1l8.9,26.5h-1.5l9.2-26.5h2.7l9.1,26.5h-1.4l9-26.5h2.9l-9.5,28.2h-3.1l-8.7-25.2
			h0.8l-8.7,25.2H666.8z"/>
		<path class="st14" d="M704.5,773.4v-29.9h2.9v14.5l-0.6-1.1c0.7-1.5,1.7-2.7,3.2-3.6c1.5-0.9,3.2-1.3,5.3-1.3c1.7,0,3.2,0.3,4.5,1
			c1.3,0.7,2.3,1.7,3.1,3c0.7,1.3,1.1,3,1.1,5.1v12.3h-2.9v-12c0-2.2-0.6-3.9-1.7-5.1c-1.1-1.1-2.7-1.7-4.7-1.7
			c-1.5,0-2.8,0.3-3.9,0.9c-1.1,0.6-2,1.5-2.6,2.6c-0.6,1.1-0.9,2.5-0.9,4.1v11.1H704.5z"/>
		<path class="st14" d="M740.7,773.6c-2.2,0-4.1-0.5-5.8-1.4s-3-2.2-3.9-3.8c-0.9-1.6-1.4-3.5-1.4-5.6c0-2.1,0.4-3.9,1.3-5.6
			c0.9-1.6,2.1-2.9,3.7-3.8c1.6-0.9,3.3-1.4,5.3-1.4c2,0,3.8,0.4,5.3,1.3c1.5,0.9,2.8,2.2,3.6,3.8s1.3,3.5,1.3,5.6
			c0,0.1,0,0.3,0,0.4c0,0.1,0,0.3,0,0.5h-18.4v-2.1h16.9l-1.1,0.8c0-1.5-0.3-2.9-1-4.1c-0.7-1.2-1.5-2.1-2.7-2.8
			c-1.1-0.7-2.4-1-3.9-1c-1.4,0-2.8,0.3-3.9,1c-1.2,0.7-2.1,1.6-2.7,2.8c-0.6,1.2-1,2.6-1,4.1v0.4c0,1.6,0.4,3,1.1,4.2
			c0.7,1.2,1.7,2.2,3,2.9c1.3,0.7,2.7,1,4.4,1c1.3,0,2.5-0.2,3.6-0.7c1.1-0.5,2.1-1.2,2.9-2.1l1.6,1.9c-0.9,1.1-2.1,2-3.5,2.6
			C743.9,773.3,742.4,773.6,740.7,773.6z"/>
		<path class="st14" d="M756,773.4v-21.1h2.7v5.8l-0.3-1c0.6-1.6,1.6-2.8,3-3.7c1.4-0.8,3.1-1.3,5.2-1.3v2.8c-0.1,0-0.2,0-0.3,0
			c-0.1,0-0.2,0-0.3,0c-2.2,0-4,0.7-5.2,2c-1.3,1.4-1.9,3.3-1.9,5.8v10.8H756z"/>
		<path class="st14" d="M781.2,773.6c-2.2,0-4.1-0.5-5.8-1.4s-3-2.2-3.9-3.8c-0.9-1.6-1.4-3.5-1.4-5.6c0-2.1,0.4-3.9,1.3-5.6
			c0.9-1.6,2.1-2.9,3.7-3.8c1.6-0.9,3.3-1.4,5.3-1.4c2,0,3.8,0.4,5.3,1.3c1.5,0.9,2.8,2.2,3.6,3.8s1.3,3.5,1.3,5.6
			c0,0.1,0,0.3,0,0.4c0,0.1,0,0.3,0,0.5h-18.4v-2.1h16.9l-1.1,0.8c0-1.5-0.3-2.9-1-4.1c-0.7-1.2-1.5-2.1-2.7-2.8
			c-1.1-0.7-2.4-1-3.9-1c-1.4,0-2.8,0.3-3.9,1c-1.2,0.7-2.1,1.6-2.7,2.8c-0.6,1.2-1,2.6-1,4.1v0.4c0,1.6,0.4,3,1.1,4.2
			c0.7,1.2,1.7,2.2,3,2.9c1.3,0.7,2.7,1,4.4,1c1.3,0,2.5-0.2,3.6-0.7c1.1-0.5,2.1-1.2,2.9-2.1l1.6,1.9c-0.9,1.1-2.1,2-3.5,2.6
			C784.4,773.3,782.8,773.6,781.2,773.6z"/>
		<path class="st14" d="M813.1,773.4v-25.6h-9.9v-2.6H826v2.6h-9.9v25.6H813.1z"/>
		<path class="st14" d="M830.1,773.4v-29.9h2.9v14.5l-0.6-1.1c0.7-1.5,1.7-2.7,3.2-3.6c1.5-0.9,3.2-1.3,5.3-1.3c1.7,0,3.2,0.3,4.5,1
			c1.3,0.7,2.3,1.7,3.1,3c0.7,1.3,1.1,3,1.1,5.1v12.3h-2.9v-12c0-2.2-0.6-3.9-1.7-5.1c-1.1-1.1-2.7-1.7-4.7-1.7
			c-1.5,0-2.8,0.3-3.9,0.9c-1.1,0.6-2,1.5-2.6,2.6c-0.6,1.1-0.9,2.5-0.9,4.1v11.1H830.1z"/>
		<path class="st14" d="M866.3,773.6c-2.2,0-4.1-0.5-5.8-1.4s-3-2.2-3.9-3.8c-0.9-1.6-1.4-3.5-1.4-5.6c0-2.1,0.4-3.9,1.3-5.6
			c0.9-1.6,2.1-2.9,3.7-3.8c1.6-0.9,3.3-1.4,5.3-1.4c2,0,3.8,0.4,5.3,1.3c1.5,0.9,2.8,2.2,3.6,3.8s1.3,3.5,1.3,5.6
			c0,0.1,0,0.3,0,0.4c0,0.1,0,0.3,0,0.5h-18.4v-2.1h16.9l-1.1,0.8c0-1.5-0.3-2.9-1-4.1c-0.7-1.2-1.5-2.1-2.7-2.8
			c-1.1-0.7-2.4-1-3.9-1c-1.4,0-2.8,0.3-3.9,1c-1.2,0.7-2.1,1.6-2.7,2.8c-0.6,1.2-1,2.6-1,4.1v0.4c0,1.6,0.4,3,1.1,4.2
			c0.7,1.2,1.7,2.2,3,2.9c1.3,0.7,2.7,1,4.4,1c1.3,0,2.5-0.2,3.6-0.7c1.1-0.5,2.1-1.2,2.9-2.1l1.6,1.9c-0.9,1.1-2.1,2-3.5,2.6
			C869.6,773.3,868,773.6,866.3,773.6z"/>
		<path class="st14" d="M892.8,773.4v-28.2h3v28.2H892.8z M895.5,760.4v-2.6h18.2v2.6H895.5z M913.4,773.4v-28.2h2.9v28.2H913.4z"/>
		<path class="st14" d="M926.4,747.6c-0.6,0-1.1-0.2-1.5-0.6c-0.4-0.4-0.6-0.9-0.6-1.4s0.2-1,0.6-1.4c0.4-0.4,0.9-0.6,1.5-0.6
			s1.1,0.2,1.5,0.6c0.4,0.4,0.6,0.8,0.6,1.4c0,0.6-0.2,1.1-0.6,1.5C927.5,747.4,927,747.6,926.4,747.6z M924.9,773.4v-21.1h2.9v21.1
			H924.9z"/>
		<path class="st14" d="M941.5,773.6c-1.7,0-3.4-0.2-5-0.7c-1.6-0.5-2.8-1.1-3.7-1.9l1.3-2.3c0.9,0.6,2,1.2,3.3,1.7
			c1.3,0.5,2.8,0.7,4.2,0.7c2,0,3.5-0.3,4.3-0.9c0.9-0.6,1.3-1.5,1.3-2.5c0-0.8-0.2-1.4-0.7-1.8c-0.5-0.4-1.1-0.8-2-1
			c-0.8-0.2-1.7-0.4-2.7-0.6c-1-0.2-2-0.3-3-0.6c-1-0.2-1.9-0.5-2.7-0.9c-0.8-0.4-1.5-1-2-1.7s-0.7-1.7-0.7-2.9c0-1.2,0.3-2.2,1-3.1
			c0.6-0.9,1.6-1.6,2.8-2.2s2.8-0.8,4.6-0.8c1.4,0,2.7,0.2,4.1,0.5c1.4,0.4,2.5,0.8,3.4,1.4l-1.2,2.3c-0.9-0.6-1.9-1.1-3-1.4
			c-1.1-0.3-2.1-0.4-3.2-0.4c-1.9,0-3.3,0.3-4.2,1c-0.9,0.7-1.3,1.5-1.3,2.5c0,0.8,0.2,1.4,0.7,1.9c0.5,0.5,1.2,0.8,2,1.1
			c0.8,0.3,1.7,0.5,2.7,0.6c1,0.2,2,0.4,2.9,0.6c1,0.2,1.9,0.5,2.7,0.9c0.8,0.4,1.5,0.9,2,1.7c0.5,0.7,0.7,1.6,0.7,2.8
			c0,1.2-0.3,2.3-1,3.2c-0.7,0.9-1.7,1.6-3,2.1C944.9,773.4,943.3,773.6,941.5,773.6z"/>
		<path class="st14" d="M952.1,754.7v-2.4h13.1v2.4H952.1z M962.1,773.6c-2,0-3.5-0.5-4.6-1.6c-1.1-1.1-1.6-2.6-1.6-4.5v-19.8h2.9
			v19.7c0,1.2,0.3,2.2,0.9,2.9c0.6,0.7,1.5,1,2.7,1c1.3,0,2.3-0.4,3.1-1.1l1,2.1c-0.6,0.5-1.2,0.9-2,1.1
			C963.7,773.5,962.9,773.6,962.1,773.6z"/>
		<path class="st14" d="M980.4,773.6c-2.1,0-3.9-0.5-5.5-1.4c-1.6-0.9-2.9-2.2-3.8-3.8c-0.9-1.6-1.4-3.5-1.4-5.6
			c0-2.1,0.5-4,1.4-5.6c0.9-1.6,2.2-2.9,3.8-3.8c1.6-0.9,3.4-1.4,5.5-1.4c2.1,0,4,0.5,5.6,1.4c1.6,0.9,2.9,2.2,3.8,3.8
			c0.9,1.6,1.4,3.5,1.4,5.6c0,2.1-0.5,4-1.4,5.6c-0.9,1.6-2.2,2.9-3.8,3.8C984.3,773.2,982.4,773.6,980.4,773.6z M980.4,771.1
			c1.5,0,2.9-0.3,4.1-1c1.2-0.7,2.1-1.7,2.8-2.9c0.7-1.2,1-2.7,1-4.3c0-1.7-0.3-3.1-1-4.3c-0.7-1.2-1.6-2.2-2.8-2.9
			c-1.2-0.7-2.5-1-4-1c-1.5,0-2.8,0.3-4,1c-1.2,0.7-2.1,1.6-2.8,2.9c-0.7,1.2-1,2.7-1,4.3c0,1.6,0.3,3.1,1,4.3
			c0.7,1.2,1.6,2.2,2.8,2.9S978.9,771.1,980.4,771.1z"/>
		<path class="st14" d="M997,773.4v-21.1h2.7v5.8l-0.3-1c0.6-1.6,1.6-2.8,3-3.7c1.4-0.8,3.1-1.3,5.2-1.3v2.8c-0.1,0-0.2,0-0.3,0
			c-0.1,0-0.2,0-0.3,0c-2.2,0-4,0.7-5.2,2c-1.3,1.4-1.9,3.3-1.9,5.8v10.8H997z"/>
		<path class="st14" d="M1013.3,781.4c-1,0-1.9-0.2-2.8-0.5c-0.9-0.3-1.7-0.8-2.3-1.4l1.3-2.1c0.5,0.5,1.1,0.9,1.8,1.2
			c0.6,0.3,1.3,0.4,2.1,0.4c0.9,0,1.8-0.3,2.4-0.8c0.7-0.5,1.3-1.4,2-2.8l1.4-3.1l0.3-0.4l8.7-19.6h2.8l-10.6,23.7
			c-0.6,1.4-1.2,2.5-2,3.3c-0.7,0.8-1.5,1.4-2.3,1.7C1015.3,781.3,1014.3,781.4,1013.3,781.4z M1018.9,774l-9.7-21.7h3l8.6,19.4
			L1018.9,774z"/>
		<path class="st14" d="M1046.1,773.4v-28.2h2.5l12.9,22h-1.3l12.8-22h2.5v28.2h-2.9v-23.7h0.7l-11.8,20.1h-1.4l-11.8-20.1h0.8v23.7
			H1046.1z"/>
		<path class="st14" d="M1092.9,773.6c-2.2,0-4.1-0.5-5.8-1.4s-3-2.2-3.9-3.8c-0.9-1.6-1.4-3.5-1.4-5.6c0-2.1,0.4-3.9,1.3-5.6
			c0.9-1.6,2.1-2.9,3.7-3.8c1.6-0.9,3.3-1.4,5.3-1.4c2,0,3.8,0.4,5.3,1.3c1.5,0.9,2.8,2.2,3.6,3.8s1.3,3.5,1.3,5.6
			c0,0.1,0,0.3,0,0.4c0,0.1,0,0.3,0,0.5H1084v-2.1h16.9l-1.1,0.8c0-1.5-0.3-2.9-1-4.1c-0.7-1.2-1.5-2.1-2.7-2.8
			c-1.1-0.7-2.4-1-3.9-1c-1.4,0-2.8,0.3-3.9,1c-1.2,0.7-2.1,1.6-2.7,2.8c-0.6,1.2-1,2.6-1,4.1v0.4c0,1.6,0.4,3,1.1,4.2
			c0.7,1.2,1.7,2.2,3,2.9c1.3,0.7,2.7,1,4.4,1c1.3,0,2.5-0.2,3.6-0.7c1.1-0.5,2.1-1.2,2.9-2.1l1.6,1.9c-0.9,1.1-2.1,2-3.5,2.6
			C1096.2,773.3,1094.6,773.6,1092.9,773.6z"/>
		<path class="st14" d="M1117.3,773.6c-2.2,0-4.1-0.5-5.8-1.4s-3-2.2-3.9-3.8c-0.9-1.6-1.4-3.5-1.4-5.6c0-2.1,0.4-3.9,1.3-5.6
			c0.9-1.6,2.1-2.9,3.7-3.8c1.6-0.9,3.3-1.4,5.3-1.4c2,0,3.8,0.4,5.3,1.3c1.5,0.9,2.8,2.2,3.6,3.8s1.3,3.5,1.3,5.6
			c0,0.1,0,0.3,0,0.4c0,0.1,0,0.3,0,0.5h-18.4v-2.1h16.9l-1.1,0.8c0-1.5-0.3-2.9-1-4.1c-0.7-1.2-1.5-2.1-2.7-2.8
			c-1.1-0.7-2.4-1-3.9-1c-1.4,0-2.8,0.3-3.9,1c-1.2,0.7-2.1,1.6-2.7,2.8c-0.6,1.2-1,2.6-1,4.1v0.4c0,1.6,0.4,3,1.1,4.2
			c0.7,1.2,1.7,2.2,3,2.9c1.3,0.7,2.7,1,4.4,1c1.3,0,2.5-0.2,3.6-0.7c1.1-0.5,2.1-1.2,2.9-2.1l1.6,1.9c-0.9,1.1-2.1,2-3.5,2.6
			C1120.5,773.3,1118.9,773.6,1117.3,773.6z"/>
		<path class="st14" d="M1129.3,754.7v-2.4h13.1v2.4H1129.3z M1139.3,773.6c-2,0-3.5-0.5-4.6-1.6c-1.1-1.1-1.6-2.6-1.6-4.5v-19.8
			h2.9v19.7c0,1.2,0.3,2.2,0.9,2.9c0.6,0.7,1.5,1,2.7,1c1.3,0,2.3-0.4,3.1-1.1l1,2.1c-0.6,0.5-1.2,0.9-2,1.1
			C1140.9,773.5,1140.1,773.6,1139.3,773.6z"/>
		<path class="st14" d="M1154.6,773.6c-1.7,0-3.4-0.2-5-0.7c-1.6-0.5-2.8-1.1-3.7-1.9l1.3-2.3c0.9,0.6,2,1.2,3.3,1.7
			c1.3,0.5,2.8,0.7,4.2,0.7c2,0,3.5-0.3,4.3-0.9c0.9-0.6,1.3-1.5,1.3-2.5c0-0.8-0.2-1.4-0.7-1.8c-0.5-0.4-1.1-0.8-2-1
			c-0.8-0.2-1.7-0.4-2.7-0.6c-1-0.2-2-0.3-3-0.6c-1-0.2-1.9-0.5-2.7-0.9c-0.8-0.4-1.5-1-2-1.7s-0.7-1.7-0.7-2.9c0-1.2,0.3-2.2,1-3.1
			c0.6-0.9,1.6-1.6,2.8-2.2s2.8-0.8,4.6-0.8c1.4,0,2.7,0.2,4.1,0.5c1.4,0.4,2.5,0.8,3.4,1.4l-1.2,2.3c-0.9-0.6-1.9-1.1-3-1.4
			c-1.1-0.3-2.1-0.4-3.2-0.4c-1.9,0-3.3,0.3-4.2,1c-0.9,0.7-1.3,1.5-1.3,2.5c0,0.8,0.2,1.4,0.7,1.9c0.5,0.5,1.2,0.8,2,1.1
			c0.8,0.3,1.7,0.5,2.7,0.6c1,0.2,2,0.4,2.9,0.6c1,0.2,1.9,0.5,2.7,0.9c0.8,0.4,1.5,0.9,2,1.7c0.5,0.7,0.7,1.6,0.7,2.8
			c0,1.2-0.3,2.3-1,3.2c-0.7,0.9-1.7,1.6-3,2.1C1158,773.4,1156.5,773.6,1154.6,773.6z"/>
		<path class="st14" d="M1175.2,773.4l12.9-28.2h2.9l12.9,28.2h-3.1l-11.8-26.4h1.2l-11.8,26.4H1175.2z M1180.3,765.9l0.9-2.4h16.4
			l0.9,2.4H1180.3z"/>
		<path class="st14" d="M1216.4,773.6c-2,0-3.8-0.5-5.4-1.4s-2.9-2.2-3.8-3.8c-0.9-1.6-1.4-3.5-1.4-5.6c0-2.1,0.5-4,1.4-5.6
			c0.9-1.6,2.2-2.9,3.8-3.8s3.4-1.3,5.4-1.3c1.9,0,3.5,0.4,5,1.2s2.6,2,3.5,3.6c0.9,1.6,1.3,3.5,1.3,5.9c0,2.3-0.4,4.2-1.3,5.8
			s-2,2.8-3.5,3.7C1220,773.2,1218.3,773.6,1216.4,773.6z M1216.6,771.1c1.5,0,2.9-0.3,4-1c1.2-0.7,2.1-1.7,2.8-2.9
			c0.7-1.2,1-2.7,1-4.3c0-1.7-0.3-3.1-1-4.3c-0.7-1.2-1.6-2.2-2.8-2.9c-1.2-0.7-2.5-1-4-1c-1.5,0-2.8,0.3-4,1
			c-1.2,0.7-2.1,1.6-2.8,2.9c-0.7,1.2-1,2.7-1,4.3c0,1.6,0.3,3.1,1,4.3c0.7,1.2,1.6,2.2,2.8,2.9
			C1213.8,770.7,1215.1,771.1,1216.6,771.1z M1224.6,773.4v-6.4l0.3-4.3l-0.4-4.3v-15h2.9v29.9H1224.6z"/>
		<path class="st14" d="M1240.7,773.4l-9.4-21.1h3l8.6,19.6h-1.4l8.7-19.6h2.8l-9.4,21.1H1240.7z"/>
		<path class="st14" d="M1266.1,773.6c-2.2,0-4.1-0.5-5.8-1.4s-3-2.2-3.9-3.8c-0.9-1.6-1.4-3.5-1.4-5.6c0-2.1,0.4-3.9,1.3-5.6
			c0.9-1.6,2.1-2.9,3.7-3.8c1.6-0.9,3.3-1.4,5.3-1.4c2,0,3.8,0.4,5.3,1.3c1.5,0.9,2.8,2.2,3.6,3.8s1.3,3.5,1.3,5.6
			c0,0.1,0,0.3,0,0.4c0,0.1,0,0.3,0,0.5h-18.4v-2.1h16.9l-1.1,0.8c0-1.5-0.3-2.9-1-4.1c-0.7-1.2-1.5-2.1-2.7-2.8
			c-1.1-0.7-2.4-1-3.9-1c-1.4,0-2.8,0.3-3.9,1c-1.2,0.7-2.1,1.6-2.7,2.8c-0.6,1.2-1,2.6-1,4.1v0.4c0,1.6,0.4,3,1.1,4.2
			c0.7,1.2,1.7,2.2,3,2.9c1.3,0.7,2.7,1,4.4,1c1.3,0,2.5-0.2,3.6-0.7c1.1-0.5,2.1-1.2,2.9-2.1l1.6,1.9c-0.9,1.1-2.1,2-3.5,2.6
			C1269.3,773.3,1267.8,773.6,1266.1,773.6z"/>
		<path class="st14" d="M1281.4,773.4v-21.1h2.7v5.8l-0.4-1.1c0.7-1.5,1.7-2.7,3.2-3.6c1.5-0.9,3.2-1.3,5.3-1.3c1.7,0,3.2,0.3,4.5,1
			c1.3,0.7,2.3,1.7,3.1,3c0.7,1.3,1.1,3,1.1,5.1v12.3h-2.9v-12c0-2.2-0.6-3.9-1.7-5.1c-1.1-1.1-2.7-1.7-4.7-1.7
			c-1.5,0-2.8,0.3-3.9,0.9c-1.1,0.6-2,1.5-2.6,2.6c-0.6,1.1-0.9,2.5-0.9,4.1v11.1H1281.4z"/>
		<path class="st14" d="M1305.3,754.7v-2.4h13.1v2.4H1305.3z M1315.3,773.6c-2,0-3.5-0.5-4.6-1.6c-1.1-1.1-1.6-2.6-1.6-4.5v-19.8
			h2.9v19.7c0,1.2,0.3,2.2,0.9,2.9c0.6,0.7,1.5,1,2.7,1c1.3,0,2.3-0.4,3.1-1.1l1,2.1c-0.6,0.5-1.2,0.9-2,1.1
			C1317,773.5,1316.1,773.6,1315.3,773.6z"/>
		<path class="st14" d="M1333.7,773.6c-1.8,0-3.4-0.3-4.7-1c-1.3-0.7-2.4-1.7-3.1-3c-0.7-1.3-1.1-3-1.1-5v-12.3h2.9v12
			c0,2.3,0.6,4,1.7,5.1c1.1,1.1,2.7,1.7,4.7,1.7c1.5,0,2.8-0.3,3.8-0.9c1.1-0.6,1.9-1.5,2.5-2.6c0.6-1.2,0.9-2.5,0.9-4.1v-11.1h2.9
			v21.1h-2.7v-5.8l0.4,1c-0.7,1.6-1.7,2.8-3.1,3.6C1337.2,773.2,1335.6,773.6,1333.7,773.6z"/>
		<path class="st14" d="M1352,773.4v-21.1h2.7v5.8l-0.3-1c0.6-1.6,1.6-2.8,3-3.7c1.4-0.8,3.1-1.3,5.2-1.3v2.8c-0.1,0-0.2,0-0.3,0
			c-0.1,0-0.2,0-0.3,0c-2.2,0-4,0.7-5.2,2c-1.3,1.4-1.9,3.3-1.9,5.8v10.8H1352z"/>
		<path class="st14" d="M1377.1,773.6c-2.2,0-4.1-0.5-5.8-1.4s-3-2.2-3.9-3.8c-0.9-1.6-1.4-3.5-1.4-5.6c0-2.1,0.4-3.9,1.3-5.6
			c0.9-1.6,2.1-2.9,3.7-3.8c1.6-0.9,3.3-1.4,5.3-1.4c2,0,3.8,0.4,5.3,1.3c1.5,0.9,2.8,2.2,3.6,3.8s1.3,3.5,1.3,5.6
			c0,0.1,0,0.3,0,0.4c0,0.1,0,0.3,0,0.5h-18.4v-2.1h16.9l-1.1,0.8c0-1.5-0.3-2.9-1-4.1c-0.7-1.2-1.5-2.1-2.7-2.8
			c-1.1-0.7-2.4-1-3.9-1c-1.4,0-2.8,0.3-3.9,1c-1.2,0.7-2.1,1.6-2.7,2.8c-0.6,1.2-1,2.6-1,4.1v0.4c0,1.6,0.4,3,1.1,4.2
			c0.7,1.2,1.7,2.2,3,2.9c1.3,0.7,2.7,1,4.4,1c1.3,0,2.5-0.2,3.6-0.7c1.1-0.5,2.1-1.2,2.9-2.1l1.6,1.9c-0.9,1.1-2.1,2-3.5,2.6
			C1380.4,773.3,1378.8,773.6,1377.1,773.6z"/>
	</g>
</g>
</svg>
